<svg width="508" height="181" viewBox="0 0 508 181" fill="none" xmlns="http://www.w3.org/2000/svg">
<path d="M507.714 0.685791L136.485 160.916C105.701 174.118 79.843 180.741 58.9325 180.741C35.2523 180.741 18.0631 172.34 7.40697 155.515C0.70463 144.713 -1.26167 131.017 1.48692 114.407C4.23551 97.7969 11.551 80.115 23.3911 61.2972C33.2649 46.08 49.4393 26.0834 71.9566 1.2859C64.319 13.4739 58.7183 26.8562 55.3805 40.8933C49.4604 66.5053 54.7885 85.3017 71.3646 97.304C79.251 102.898 90.0973 105.706 103.925 105.706C114.962 105.706 127.394 103.905 141.221 100.305L507.714 0.685791Z" fill="white"/>
</svg>
