<svg width="24" height="25" viewBox="0 0 24 25" fill="none" xmlns="http://www.w3.org/2000/svg">
<path d="M12 3.0332C10.1458 3.0332 8.33324 3.58304 6.79153 4.61318C5.24982 5.64331 4.04821 7.10749 3.33863 8.82055C2.62906 10.5336 2.44341 12.4186 2.80514 14.2372C3.16688 16.0557 4.05976 17.7262 5.37088 19.0373C6.682 20.3484 8.35246 21.2413 10.171 21.6031C11.9896 21.9648 13.8746 21.7791 15.5877 21.0696C17.3007 20.36 18.7649 19.1584 19.795 17.6167C20.8252 16.075 21.375 14.2624 21.375 12.4082C21.3723 9.92264 20.3837 7.53965 18.6261 5.78209C16.8686 4.02453 14.4856 3.03593 12 3.0332ZM12 21.0332C10.2941 21.0332 8.62658 20.5274 7.20821 19.5796C5.78984 18.6319 4.68435 17.2849 4.03154 15.7088C3.37874 14.1328 3.20793 12.3986 3.54073 10.7255C3.87353 9.05246 4.69498 7.51563 5.90121 6.30941C7.10744 5.10318 8.64426 4.28173 10.3174 3.94893C11.9904 3.61613 13.7246 3.78694 15.3006 4.43974C16.8767 5.09255 18.2237 6.19804 19.1714 7.61641C20.1192 9.03478 20.625 10.7023 20.625 12.4082C20.6225 14.6949 19.713 16.8873 18.0961 18.5043C16.4791 20.1212 14.2867 21.0307 12 21.0332ZM15.3 14.8841C14.7804 15.5765 14.0562 16.0879 13.2298 16.3458C12.4035 16.6038 11.5169 16.5952 10.6957 16.3213C9.87451 16.0475 9.16028 15.5222 8.65416 14.8199C8.14805 14.1176 7.87571 13.2739 7.87571 12.4082C7.87571 11.5425 8.14805 10.6988 8.65416 9.99651C9.16028 9.29421 9.87451 8.76893 10.6957 8.49507C11.5169 8.22121 12.4035 8.21264 13.2298 8.47057C14.0562 8.72851 14.7804 9.23988 15.3 9.93227C15.3296 9.97166 15.3512 10.0165 15.3635 10.0642C15.3757 10.112 15.3785 10.1616 15.3716 10.2104C15.3646 10.2592 15.3482 10.3062 15.3231 10.3486C15.298 10.391 15.2649 10.4281 15.2255 10.4577C15.1861 10.4873 15.1412 10.5089 15.0935 10.5212C15.0458 10.5335 14.9961 10.5362 14.9473 10.5293C14.8985 10.5224 14.8516 10.5059 14.8091 10.4808C14.7667 10.4558 14.7296 10.4226 14.7 10.3832C14.275 9.81652 13.6825 9.39793 13.0063 9.18672C12.3302 8.97551 11.6047 8.9824 10.9327 9.2064C10.2607 9.4304 9.67624 9.86016 9.26206 10.4348C8.84788 11.0095 8.625 11.6998 8.625 12.4082C8.625 13.1166 8.84788 13.807 9.26206 14.3816C9.67624 14.9562 10.2607 15.386 10.9327 15.61C11.6047 15.834 12.3302 15.8409 13.0063 15.6297C13.6825 15.4185 14.275 14.9999 14.7 14.4332C14.7598 14.3536 14.8488 14.3011 14.9473 14.2871C15.0458 14.2731 15.1459 14.2989 15.2255 14.3587C15.305 14.4185 15.3576 14.5074 15.3716 14.606C15.3855 14.7045 15.3598 14.8046 15.3 14.8841Z" fill="#DEC5B1"/>
</svg>
