<svg width="24" height="25" viewBox="0 0 24 25" fill="none" xmlns="http://www.w3.org/2000/svg">
<path d="M12 13.9082C11.2583 13.9082 10.5333 13.6883 9.91661 13.2762C9.29993 12.8642 8.81928 12.2785 8.53545 11.5933C8.25162 10.908 8.17736 10.154 8.32206 9.42662C8.46675 8.69919 8.8239 8.031 9.34835 7.50655C9.8728 6.98211 10.541 6.62495 11.2684 6.48026C11.9958 6.33557 12.7498 6.40983 13.4351 6.69366C14.1203 6.97749 14.706 7.45813 15.118 8.07482C15.5301 8.6915 15.75 9.41653 15.75 10.1582C15.7488 11.1524 15.3533 12.1055 14.6503 12.8085C13.9473 13.5115 12.9942 13.907 12 13.9082ZM12 7.90821C11.555 7.90821 11.12 8.04017 10.75 8.2874C10.38 8.53463 10.0916 8.88603 9.92127 9.29717C9.75098 9.7083 9.70642 10.1607 9.79323 10.5972C9.88005 11.0336 10.0943 11.4345 10.409 11.7492C10.7237 12.0639 11.1246 12.2782 11.561 12.365C11.9975 12.4518 12.4499 12.4072 12.861 12.2369C13.2722 12.0666 13.6236 11.7782 13.8708 11.4082C14.118 11.0382 14.25 10.6032 14.25 10.1582C14.2494 9.56165 14.0122 8.9897 13.5903 8.56787C13.1685 8.14604 12.5966 7.9088 12 7.90821Z" fill="#FFF9F4"/>
<path d="M12 22.9082L5.67301 15.4465C5.58509 15.3344 5.49809 15.2217 5.41201 15.1082C4.33124 13.6845 3.74739 11.9456 3.75001 10.1582C3.75001 7.97017 4.6192 5.87175 6.16638 4.32457C7.71355 2.7774 9.81197 1.9082 12 1.9082C14.188 1.9082 16.2865 2.7774 17.8336 4.32457C19.3808 5.87175 20.25 7.97017 20.25 10.1582C20.2526 11.9448 19.669 13.6829 18.5888 15.106L18.588 15.1082C18.588 15.1082 18.363 15.4037 18.3293 15.4435L12 22.9082ZM6.60901 14.2045C6.61051 14.2045 6.78451 14.4355 6.82426 14.485L12 20.5892L17.1825 14.4767C17.2155 14.4355 17.391 14.203 17.3918 14.2022C18.2746 13.039 18.7517 11.6185 18.75 10.1582C18.75 8.36799 18.0388 6.6511 16.773 5.38523C15.5071 4.11936 13.7902 3.4082 12 3.4082C10.2098 3.4082 8.49291 4.11936 7.22704 5.38523C5.96117 6.6511 5.25001 8.36799 5.25001 10.1582C5.24844 11.6194 5.72534 13.0408 6.60901 14.2045Z" fill="#FFF9F4"/>
</svg>
