<svg width="20" height="20" viewBox="0 0 20 20" fill="none" xmlns="http://www.w3.org/2000/svg">
<path d="M14 5.4082C14 5.14299 14.1054 4.88863 14.2929 4.7011C14.4804 4.51356 14.7348 4.4082 15 4.4082C15.2652 4.4082 15.5196 4.51356 15.7071 4.7011C15.8946 4.88863 16 5.14299 16 5.4082C16 5.67342 15.8946 5.92777 15.7071 6.11531C15.5196 6.30285 15.2652 6.4082 15 6.4082C14.7348 6.4082 14.4804 6.30285 14.2929 6.11531C14.1054 5.92777 14 5.67342 14 5.4082Z" fill="#CEAAD0"/>
<path fill-rule="evenodd" clip-rule="evenodd" d="M10 5.6582C8.74022 5.6582 7.53204 6.15865 6.64124 7.04945C5.75045 7.94024 5.25 9.14842 5.25 10.4082C5.25 11.668 5.75045 12.8762 6.64124 13.767C7.53204 14.6578 8.74022 15.1582 10 15.1582C11.2598 15.1582 12.468 14.6578 13.3588 13.767C14.2496 12.8762 14.75 11.668 14.75 10.4082C14.75 9.14842 14.2496 7.94024 13.3588 7.04945C12.468 6.15865 11.2598 5.6582 10 5.6582ZM6.75 10.4082C6.75 9.54625 7.09241 8.7196 7.7019 8.11011C8.3114 7.50061 9.13805 7.1582 10 7.1582C10.862 7.1582 11.6886 7.50061 12.2981 8.11011C12.9076 8.7196 13.25 9.54625 13.25 10.4082C13.25 11.2702 12.9076 12.0968 12.2981 12.7063C11.6886 13.3158 10.862 13.6582 10 13.6582C9.13805 13.6582 8.3114 13.3158 7.7019 12.7063C7.09241 12.0968 6.75 11.2702 6.75 10.4082Z" fill="#CEAAD0"/>
<path fill-rule="evenodd" clip-rule="evenodd" d="M15.2581 1.24075C11.7634 0.853344 8.23669 0.853344 4.74206 1.24075C2.73006 1.46575 1.10506 3.05075 0.869056 5.07275C0.454455 8.61733 0.454455 12.1982 0.869056 15.7427C1.10506 17.7647 2.72906 19.3497 4.74206 19.5747C8.23671 19.9618 11.7634 19.9618 15.2581 19.5747C17.2701 19.3497 18.8951 17.7647 19.1311 15.7427C19.5457 12.1982 19.5457 8.61733 19.1311 5.07275C18.8951 3.05075 17.2711 1.46575 15.2581 1.24075ZM4.90806 2.73075C8.29236 2.35562 11.7078 2.35562 15.0921 2.73075C16.4221 2.88075 17.4871 3.92975 17.6421 5.24775C18.043 8.67607 18.043 12.1394 17.6421 15.5677C17.5619 16.2128 17.2666 16.812 16.8039 17.2685C16.3412 17.725 15.7381 18.0122 15.0921 18.0837C11.7078 18.4589 8.29236 18.4589 4.90806 18.0837C4.262 18.0122 3.65891 17.725 3.19621 17.2685C2.73351 16.812 2.43823 16.2128 2.35806 15.5677C1.9571 12.1394 1.9571 8.67607 2.35806 5.24775C2.43823 4.60271 2.73351 4.00353 3.19621 3.547C3.65891 3.09047 4.262 2.80226 4.90806 2.73075Z" fill="#CEAAD0"/>
</svg>
