<svg width="20" height="16" viewBox="0 0 20 16" fill="none" xmlns="http://www.w3.org/2000/svg">
<path d="M1.72034 6.55347C0.851498 6.55347 0.150146 7.25482 0.150146 8.12366C0.150146 8.99249 0.851498 9.69385 1.72034 9.69385C2.58917 9.69385 3.29053 8.99249 3.29053 8.12366C3.29053 7.25482 2.58917 6.55347 1.72034 6.55347ZM1.72034 0.272705C0.851498 0.272705 0.150146 0.974057 0.150146 1.8429C0.150146 2.71173 0.851498 3.41309 1.72034 3.41309C2.58917 3.41309 3.29053 2.71173 3.29053 1.8429C3.29053 0.974057 2.58917 0.272705 1.72034 0.272705ZM1.72034 12.8342C0.851498 12.8342 0.150146 13.546 0.150146 14.4044C0.150146 15.2628 0.861966 15.9746 1.72034 15.9746C2.57871 15.9746 3.29053 15.2628 3.29053 14.4044C3.29053 13.546 2.58917 12.8342 1.72034 12.8342ZM4.86072 15.4512H19.5158V13.3576H4.86072V15.4512ZM4.86072 9.17045H19.5158V7.07686H4.86072V9.17045ZM4.86072 0.796102V2.88969H19.5158V0.796102H4.86072Z" fill="#808080"/>
</svg>
