<svg width="1920" height="268" viewBox="0 0 1920 268" fill="none" xmlns="http://www.w3.org/2000/svg">
<path d="M249.975 268H326.086L187.632 0.272006H94.6926L-43.3785 268H32.3502L61.0354 211.012H221.29L249.975 268ZM86.6608 159.761L141.354 51.1403L195.664 159.761H86.6608ZM386.525 0.272006H317.681V268H386.525V0.272006ZM705.032 98.5664C705.032 38.9013 663.343 0.272006 602.53 0.272006H392.172V268H461.017V196.478H571.933L615.152 268H696.235L646.897 188.447C682.849 174.295 705.032 142.168 705.032 98.5664ZM461.017 58.0248H583.407C604.06 58.0248 636.187 58.0248 636.187 98.5664C636.187 138.726 604.06 138.726 583.407 138.726H461.017V58.0248ZM1269.01 0.272006H1176.07L1064.01 189.211L951.948 0.272006H859.008V268H927.852V84.4151L1039.15 268H1088.87L1200.17 84.4151V268H1269.01V0.272006ZM1553.95 268H1630.06L1491.61 0.272006H1398.67L1260.6 268H1336.33L1365.01 211.012H1525.27L1553.95 268ZM1390.64 159.761L1445.33 51.1403L1499.64 159.761H1390.64ZM1612.98 268H1707.83L1810.33 176.208L1912.45 268H2007.69L1856.99 134.136L2007.69 0.272006H1912.45L1810.33 92.0645L1707.83 0.272006H1612.98L1763.67 134.136L1612.98 268Z" fill="white" fill-opacity="0.14"/>
</svg>
