<svg width="520" height="539" viewBox="0 0 520 539" fill="none" xmlns="http://www.w3.org/2000/svg">
<g clip-path="url(#clip0_5_125)">
<line x1="518.603" y1="518.598" x2="0.0586548" y2="518.598" stroke="white" stroke-opacity="0.22" stroke-width="2.00209"/>
<line x1="518.603" y1="498.577" x2="0.0586548" y2="498.577" stroke="white" stroke-opacity="0.22" stroke-width="2.00209"/>
<line x1="518.603" y1="478.556" x2="0.0586548" y2="478.556" stroke="white" stroke-opacity="0.22" stroke-width="2.00209"/>
<line x1="518.603" y1="458.535" x2="0.0586548" y2="458.535" stroke="white" stroke-opacity="0.22" stroke-width="2.00209"/>
<line x1="518.603" y1="438.514" x2="0.0586548" y2="438.514" stroke="white" stroke-opacity="0.22" stroke-width="2.00209"/>
<line x1="518.603" y1="418.493" x2="0.0586548" y2="418.493" stroke="white" stroke-opacity="0.22" stroke-width="2.00209"/>
<line x1="518.603" y1="398.472" x2="0.0586548" y2="398.472" stroke="white" stroke-opacity="0.22" stroke-width="2.00209"/>
<line x1="518.603" y1="378.451" x2="0.0586548" y2="378.451" stroke="white" stroke-opacity="0.22" stroke-width="2.00209"/>
<line x1="518.603" y1="358.431" x2="0.0586548" y2="358.431" stroke="white" stroke-opacity="0.22" stroke-width="2.00209"/>
<line x1="518.603" y1="338.41" x2="0.0586548" y2="338.41" stroke="white" stroke-opacity="0.22" stroke-width="2.00209"/>
<line x1="518.603" y1="318.389" x2="0.0586548" y2="318.389" stroke="white" stroke-opacity="0.22" stroke-width="2.00209"/>
<line x1="518.603" y1="298.368" x2="0.0586548" y2="298.368" stroke="white" stroke-opacity="0.22" stroke-width="2.00209"/>
<line x1="518.603" y1="278.347" x2="0.0586548" y2="278.347" stroke="white" stroke-opacity="0.22" stroke-width="2.00209"/>
<line x1="518.603" y1="258.326" x2="0.0586548" y2="258.326" stroke="white" stroke-opacity="0.22" stroke-width="2.00209"/>
<line x1="518.603" y1="238.305" x2="0.0586548" y2="238.305" stroke="white" stroke-opacity="0.22" stroke-width="2.00209"/>
<line x1="518.603" y1="218.284" x2="0.0586548" y2="218.284" stroke="white" stroke-opacity="0.22" stroke-width="2.00209"/>
<line x1="518.603" y1="198.264" x2="0.0586548" y2="198.264" stroke="white" stroke-opacity="0.22" stroke-width="2.00209"/>
<line x1="518.603" y1="178.243" x2="0.0586548" y2="178.243" stroke="white" stroke-opacity="0.22" stroke-width="2.00209"/>
<line x1="518.603" y1="158.222" x2="0.0586548" y2="158.222" stroke="white" stroke-opacity="0.22" stroke-width="2.00209"/>
<line x1="518.603" y1="138.201" x2="0.0586548" y2="138.201" stroke="white" stroke-opacity="0.22" stroke-width="2.00209"/>
<line x1="518.603" y1="118.18" x2="0.0586548" y2="118.18" stroke="white" stroke-opacity="0.22" stroke-width="2.00209"/>
<line x1="518.603" y1="98.1591" x2="0.0586548" y2="98.1591" stroke="white" stroke-opacity="0.22" stroke-width="2.00209"/>
<line x1="518.603" y1="78.1383" x2="0.0586548" y2="78.1383" stroke="white" stroke-opacity="0.22" stroke-width="2.00209"/>
<line x1="518.603" y1="58.1174" x2="0.0586548" y2="58.1174" stroke="white" stroke-opacity="0.22" stroke-width="2.00209"/>
<line x1="518.603" y1="38.0965" x2="0.0586548" y2="38.0965" stroke="white" stroke-opacity="0.22" stroke-width="2.00209"/>
<line x1="518.603" y1="18.0756" x2="0.0586548" y2="18.0756" stroke="white" stroke-opacity="0.22" stroke-width="2.00209"/>
<line x1="18.0793" y1="538.635" x2="18.0793" y2="0.0400696" stroke="white" stroke-opacity="0.22" stroke-width="2.00209"/>
<line x1="38.1002" y1="538.635" x2="38.1002" y2="0.0400696" stroke="white" stroke-opacity="0.22" stroke-width="2.00209"/>
<line x1="58.1211" y1="538.635" x2="58.1211" y2="0.0400696" stroke="white" stroke-opacity="0.22" stroke-width="2.00209"/>
<line x1="78.142" y1="538.635" x2="78.142" y2="0.0400696" stroke="white" stroke-opacity="0.22" stroke-width="2.00209"/>
<line x1="98.1628" y1="538.635" x2="98.1628" y2="0.0400696" stroke="white" stroke-opacity="0.22" stroke-width="2.00209"/>
<line x1="118.184" y1="538.635" x2="118.184" y2="0.0400696" stroke="white" stroke-opacity="0.22" stroke-width="2.00209"/>
<line x1="138.205" y1="538.635" x2="138.205" y2="0.0400696" stroke="white" stroke-opacity="0.22" stroke-width="2.00209"/>
<line x1="158.225" y1="538.635" x2="158.225" y2="0.0400696" stroke="white" stroke-opacity="0.22" stroke-width="2.00209"/>
<line x1="178.246" y1="538.635" x2="178.246" y2="0.0400696" stroke="white" stroke-opacity="0.22" stroke-width="2.00209"/>
<line x1="198.267" y1="538.635" x2="198.267" y2="0.0400696" stroke="white" stroke-opacity="0.22" stroke-width="2.00209"/>
<line x1="218.288" y1="538.635" x2="218.288" y2="0.0400696" stroke="white" stroke-opacity="0.22" stroke-width="2.00209"/>
<line x1="238.309" y1="538.635" x2="238.309" y2="0.0400696" stroke="white" stroke-opacity="0.22" stroke-width="2.00209"/>
<line x1="258.33" y1="538.635" x2="258.33" y2="0.0400696" stroke="white" stroke-opacity="0.22" stroke-width="2.00209"/>
<line x1="278.351" y1="538.635" x2="278.351" y2="0.0400696" stroke="white" stroke-opacity="0.22" stroke-width="2.00209"/>
<line x1="298.372" y1="538.635" x2="298.372" y2="0.0400696" stroke="white" stroke-opacity="0.22" stroke-width="2.00209"/>
<line x1="318.393" y1="538.635" x2="318.393" y2="0.0400696" stroke="white" stroke-opacity="0.22" stroke-width="2.00209"/>
<line x1="338.413" y1="538.635" x2="338.413" y2="0.0400696" stroke="white" stroke-opacity="0.22" stroke-width="2.00209"/>
<line x1="358.434" y1="538.635" x2="358.434" y2="0.0400696" stroke="white" stroke-opacity="0.22" stroke-width="2.00209"/>
<line x1="378.455" y1="538.635" x2="378.455" y2="0.0400696" stroke="white" stroke-opacity="0.22" stroke-width="2.00209"/>
<line x1="398.476" y1="538.635" x2="398.476" y2="0.0400696" stroke="white" stroke-opacity="0.22" stroke-width="2.00209"/>
<line x1="418.497" y1="538.635" x2="418.497" y2="0.0400696" stroke="white" stroke-opacity="0.22" stroke-width="2.00209"/>
<line x1="438.518" y1="538.635" x2="438.518" y2="0.0400696" stroke="white" stroke-opacity="0.22" stroke-width="2.00209"/>
<line x1="458.539" y1="538.635" x2="458.539" y2="0.0400696" stroke="white" stroke-opacity="0.22" stroke-width="2.00209"/>
<line x1="478.56" y1="538.635" x2="478.56" y2="0.0400696" stroke="white" stroke-opacity="0.22" stroke-width="2.00209"/>
<line x1="498.58" y1="538.635" x2="498.58" y2="0.0400696" stroke="white" stroke-opacity="0.22" stroke-width="2.00209"/>
</g>
<defs>
<clipPath id="clip0_5_125">
<rect x="0.0605469" y="538.618" width="538.506" height="519.081" rx="259.541" transform="rotate(-90 0.0605469 538.618)" fill="white"/>
</clipPath>
</defs>
</svg>
