<svg width="36" height="37" viewBox="0 0 36 37" fill="none" xmlns="http://www.w3.org/2000/svg">
<path d="M24 10.9082C24 10.5104 24.158 10.1288 24.4393 9.84754C24.7206 9.56624 25.1022 9.4082 25.5 9.4082C25.8978 9.4082 26.2794 9.56624 26.5607 9.84754C26.842 10.1288 27 10.5104 27 10.9082C27 11.306 26.842 11.6876 26.5607 11.9689C26.2794 12.2502 25.8978 12.4082 25.5 12.4082C25.1022 12.4082 24.7206 12.2502 24.4393 11.9689C24.158 11.6876 24 11.306 24 10.9082Z" fill="#FFF9F4"/>
<path fill-rule="evenodd" clip-rule="evenodd" d="M18 11.2832C16.1103 11.2832 14.2981 12.0339 12.9619 13.3701C11.6257 14.7063 10.875 16.5185 10.875 18.4082C10.875 20.2979 11.6257 22.1101 12.9619 23.4463C14.2981 24.7825 16.1103 25.5332 18 25.5332C19.8897 25.5332 21.7019 24.7825 23.0381 23.4463C24.3743 22.1101 25.125 20.2979 25.125 18.4082C25.125 16.5185 24.3743 14.7063 23.0381 13.3701C21.7019 12.0339 19.8897 11.2832 18 11.2832ZM13.125 18.4082C13.125 17.1153 13.6386 15.8753 14.5529 14.9611C15.4671 14.0468 16.7071 13.5332 18 13.5332C19.2929 13.5332 20.5329 14.0468 21.4471 14.9611C22.3614 15.8753 22.875 17.1153 22.875 18.4082C22.875 19.7011 22.3614 20.9411 21.4471 21.8553C20.5329 22.7696 19.2929 23.2832 18 23.2832C16.7071 23.2832 15.4671 22.7696 14.5529 21.8553C13.6386 20.9411 13.125 19.7011 13.125 18.4082Z" fill="#FFF9F4"/>
<path fill-rule="evenodd" clip-rule="evenodd" d="M25.8871 4.65653C20.6451 4.07543 15.355 4.07543 10.1131 4.65653C7.09508 4.99403 4.65758 7.37153 4.30358 10.4045C3.68168 15.7214 3.68168 21.0927 4.30358 26.4095C4.65758 29.4425 7.09358 31.82 10.1131 32.1575C15.3551 32.738 20.6451 32.738 25.8871 32.1575C28.9051 31.82 31.3426 29.4425 31.6966 26.4095C32.3186 21.0927 32.3186 15.7214 31.6966 10.4045C31.3426 7.37153 28.9066 4.99403 25.8871 4.65653ZM10.3621 6.89153C15.4385 6.32884 20.5616 6.32884 25.6381 6.89153C27.6331 7.11653 29.2306 8.69003 29.4631 10.667C30.0645 15.8095 30.0645 21.0046 29.4631 26.147C29.3428 27.1146 28.8999 28.0134 28.2058 28.6982C27.5118 29.3829 26.6072 29.8138 25.6381 29.921C20.5616 30.4838 15.4385 30.4838 10.3621 29.921C9.39299 29.8138 8.48836 29.3829 7.79432 28.6982C7.10027 28.0134 6.65734 27.1146 6.53708 26.147C5.93566 21.0046 5.93566 15.8095 6.53708 10.667C6.65734 9.69947 7.10027 8.8007 7.79432 8.11591C8.48836 7.43112 9.39299 6.99879 10.3621 6.89153Z" fill="#FFF9F4"/>
</svg>
