<svg width="24" height="25" viewBox="0 0 24 25" fill="none" xmlns="http://www.w3.org/2000/svg">
<path d="M12 2.6582C10.0716 2.6582 8.18657 3.23003 6.58319 4.30137C4.97982 5.37272 3.73013 6.89546 2.99218 8.67704C2.25422 10.4586 2.06114 12.419 2.43735 14.3103C2.81355 16.2016 3.74215 17.9389 5.10571 19.3025C6.46928 20.6661 8.20656 21.5947 10.0979 21.9709C11.9892 22.3471 13.9496 22.154 15.7312 21.416C17.5127 20.6781 19.0355 19.4284 20.1068 17.825C21.1782 16.2216 21.75 14.3366 21.75 12.4082C21.7473 9.82318 20.7192 7.34482 18.8913 5.51693C17.0634 3.68904 14.585 2.66093 12 2.6582ZM12 20.6582C10.3683 20.6582 8.77326 20.1743 7.41655 19.2678C6.05984 18.3613 5.00242 17.0728 4.378 15.5653C3.75358 14.0579 3.5902 12.3991 3.90853 10.7987C4.22685 9.19837 5.01259 7.72836 6.16637 6.57457C7.32016 5.42079 8.79017 4.63505 10.3905 4.31672C11.9909 3.9984 13.6497 4.16177 15.1571 4.7862C16.6646 5.41062 17.9531 6.46804 18.8596 7.82475C19.7661 9.18145 20.25 10.7765 20.25 12.4082C20.2475 14.5955 19.3775 16.6925 17.8309 18.2391C16.2843 19.7857 14.1873 20.6557 12 20.6582ZM18 12.4082C18 12.6071 17.921 12.7979 17.7803 12.9385C17.6397 13.0792 17.4489 13.1582 17.25 13.1582H12C11.8011 13.1582 11.6103 13.0792 11.4697 12.9385C11.329 12.7979 11.25 12.6071 11.25 12.4082V7.1582C11.25 6.95929 11.329 6.76853 11.4697 6.62787C11.6103 6.48722 11.8011 6.4082 12 6.4082C12.1989 6.4082 12.3897 6.48722 12.5303 6.62787C12.671 6.76853 12.75 6.95929 12.75 7.1582V11.6582H17.25C17.4489 11.6582 17.6397 11.7372 17.7803 11.8779C17.921 12.0185 18 12.2093 18 12.4082Z" fill="#FFF9F4"/>
</svg>
