<svg width="24" height="23" viewBox="0 0 24 23" fill="none" xmlns="http://www.w3.org/2000/svg">
<g filter="url(#filter0_d_5_7)">
<path d="M18 20H8V7L15 0L16.25 1.25C16.3667 1.36667 16.4627 1.525 16.538 1.725C16.6133 1.925 16.6507 2.11667 16.65 2.3V2.65L15.55 7H21C21.5333 7 22 7.2 22.4 7.6C22.8 8 23 8.46667 23 9V11C23 11.1167 22.9877 11.2417 22.963 11.375C22.9383 11.5083 22.9007 11.6333 22.85 11.75L19.85 18.8C19.7 19.1333 19.45 19.4167 19.1 19.65C18.75 19.8833 18.3833 20 18 20ZM6 7V20H2V7H6Z" fill="#F8FCFF"/>
</g>
<defs>
<filter id="filter0_d_5_7" x="-2" y="0" width="29" height="28" filterUnits="userSpaceOnUse" color-interpolation-filters="sRGB">
<feFlood flood-opacity="0" result="BackgroundImageFix"/>
<feColorMatrix in="SourceAlpha" type="matrix" values="0 0 0 0 0 0 0 0 0 0 0 0 0 0 0 0 0 0 127 0" result="hardAlpha"/>
<feOffset dy="4"/>
<feGaussianBlur stdDeviation="2"/>
<feComposite in2="hardAlpha" operator="out"/>
<feColorMatrix type="matrix" values="0 0 0 0 0 0 0 0 0 0 0 0 0 0 0 0 0 0 0.25 0"/>
<feBlend mode="normal" in2="BackgroundImageFix" result="effect1_dropShadow_5_7"/>
<feBlend mode="normal" in="SourceGraphic" in2="effect1_dropShadow_5_7" result="shape"/>
</filter>
</defs>
</svg>
