<svg width="36" height="37" viewBox="0 0 36 37" fill="none" xmlns="http://www.w3.org/2000/svg">
<path fill-rule="evenodd" clip-rule="evenodd" d="M35.1075 25.7057C34.2915 24.0623 33.2163 22.5611 31.923 21.2597C31.4905 20.7708 31.0376 20.3004 30.5655 19.8497L30.5085 19.7942C30.3332 19.6239 30.1602 19.4514 29.9895 19.2767C31.7574 16.8183 33.2702 14.1862 34.5045 11.4212L34.554 11.3102L34.5885 11.1932C34.752 10.6487 34.938 9.61365 34.278 8.67765C33.594 7.71165 32.5005 7.53765 31.767 7.53765H28.3965C27.6908 7.50549 26.9929 7.6974 26.4029 8.08591C25.8128 8.47443 25.3608 9.03964 25.1115 9.70065C24.3861 11.4281 23.478 13.073 22.4025 14.6072V10.6577C22.4025 10.1477 22.3545 9.29265 21.807 8.57265C21.153 7.70865 20.2065 7.53765 19.5495 7.53765H14.2005C13.5025 7.52159 12.8251 7.77459 12.3085 8.24426C11.7919 8.71393 11.4758 9.36429 11.4255 10.0607L11.421 10.1282V10.1957C11.421 10.9232 11.709 11.4602 11.94 11.7977C12.0435 11.9492 12.153 12.0872 12.2235 12.1742L12.2385 12.1937C12.3135 12.2867 12.363 12.3482 12.4125 12.4172C12.5445 12.5942 12.732 12.8702 12.786 13.5812V15.7907C11.7123 13.9926 10.8319 12.086 10.1595 10.1027L10.1475 10.0697L10.1355 10.0382C9.9525 9.55965 9.66 8.86365 9.0735 8.33265C8.3895 7.71015 7.5795 7.53765 6.843 7.53765H3.423C2.6775 7.53765 1.779 7.71165 1.1085 8.41815C0.45 9.11415 0.375 9.94815 0.375 10.3892V10.5902L0.417 10.7852C1.36395 15.1813 3.31535 19.2987 6.1185 22.8152C7.40006 24.8361 9.13993 26.5266 11.197 27.7494C13.254 28.9722 15.5703 29.6929 17.958 29.8531L18.0195 29.8577H18.0825C19.1715 29.8577 20.307 29.7632 21.1605 29.1947C22.311 28.4267 22.4025 27.2492 22.4025 26.6612V24.9542C22.698 25.1942 23.064 25.5152 23.5125 25.9471C24.0555 26.4902 24.4875 26.9612 24.858 27.3722L25.056 27.5912C25.344 27.9122 25.6275 28.2286 25.8855 28.4881C26.2095 28.8137 26.61 29.1722 27.111 29.4377C27.6555 29.7242 28.227 29.8547 28.833 29.8547H32.2545C32.976 29.8547 34.0095 29.6837 34.737 28.8407C35.529 27.9227 35.469 26.7962 35.22 25.9876L35.175 25.8421L35.1075 25.7057ZM26.5275 25.8647C26.0626 25.345 25.5839 24.8378 25.092 24.3437L25.0875 24.3392C23.052 22.3772 22.1025 22.0367 21.4305 22.0367C21.072 22.0367 20.6775 22.0757 20.421 22.3967C20.3055 22.5498 20.2298 22.7291 20.2005 22.9187C20.1643 23.1387 20.1483 23.3617 20.1525 23.5847V26.6612C20.1525 27.0437 20.0895 27.2041 19.9125 27.3211C19.677 27.4787 19.1745 27.6062 18.096 27.6062C16.0473 27.4668 14.061 26.8431 12.3003 25.7865C10.5396 24.7298 9.05478 23.2704 7.968 21.5282L7.956 21.5087L7.941 21.4907C5.32967 18.2404 3.50977 14.4275 2.625 10.3532C2.631 10.1582 2.673 10.0397 2.742 9.96765C2.8125 9.89265 2.985 9.78765 3.423 9.78765H6.843C7.2225 9.78765 7.4205 9.87165 7.563 9.99915C7.722 10.1462 7.863 10.3937 8.031 10.8347C8.871 13.3037 10.005 15.6137 11.0805 17.3102C11.6175 18.1592 12.1455 18.8657 12.6225 19.3652C12.861 19.6142 13.0935 19.8212 13.317 19.9682C13.5315 20.1092 13.776 20.2217 14.028 20.2217C14.16 20.2217 14.3145 20.2067 14.463 20.1422C14.6234 20.0713 14.7554 19.9488 14.838 19.7942C14.9925 19.5122 15.036 19.0967 15.036 18.5522V13.4927C14.9565 12.2657 14.586 11.5742 14.226 11.0837C14.1531 10.9855 14.0781 10.889 14.001 10.7942L13.9815 10.7702C13.9175 10.6925 13.8565 10.6124 13.7985 10.5302C13.7247 10.4384 13.6802 10.3265 13.671 10.2092C13.6828 10.09 13.7396 9.97977 13.83 9.90113C13.9203 9.8225 14.0373 9.78136 14.157 9.78615H19.5495C19.8585 9.78615 19.962 9.86115 20.0145 9.93165C20.0895 10.0292 20.1525 10.2317 20.1525 10.6577V17.4497C20.1525 18.2567 20.5245 18.8027 21.0645 18.8027C21.6855 18.8027 22.134 18.4262 22.917 17.6432L22.9305 17.6282L22.9425 17.6147C24.699 15.4731 26.134 13.087 27.2025 10.5317L27.2085 10.5137C27.2888 10.2879 27.4407 10.0946 27.6411 9.96322C27.8416 9.83187 28.0794 9.76968 28.3185 9.78615H31.7685C32.2365 9.78615 32.3895 9.90615 32.4405 9.97665C32.493 10.0517 32.5305 10.2122 32.4405 10.5272C31.2084 13.2817 29.6852 15.8966 27.897 18.3272L27.885 18.3452C27.7125 18.6107 27.522 18.9047 27.495 19.2407C27.465 19.6037 27.621 19.9322 27.8955 20.2862C28.095 20.5802 28.5075 20.9837 28.926 21.3932L28.965 21.4322C29.403 21.8612 29.8785 22.3262 30.2595 22.7762L30.27 22.7867L30.2805 22.7987C31.4166 23.9319 32.3614 25.2419 33.078 26.6777C33.192 27.0677 33.123 27.2687 33.033 27.3722C32.9295 27.4922 32.697 27.6047 32.256 27.6047H28.833C28.5997 27.6103 28.3689 27.5561 28.1625 27.4471C27.9096 27.3 27.6801 27.116 27.4815 26.9012C27.267 26.6867 27.0345 26.4272 26.7495 26.1107L26.529 25.8647H26.5275Z" fill="#FFF9F4"/>
</svg>
