<svg width="36" height="37" viewBox="0 0 36 37" fill="none" xmlns="http://www.w3.org/2000/svg">
<path d="M33.75 18.3102C33.75 18.2328 33.75 18.1449 33.7465 18.043C33.743 17.7582 33.7359 17.4383 33.7289 17.0973C33.7008 16.1164 33.6516 15.1391 33.5742 14.218C33.4688 12.9488 33.3141 11.8906 33.1031 11.0961C32.8805 10.2669 32.4442 9.51072 31.8377 8.90303C31.2313 8.29535 30.476 7.85749 29.6473 7.6332C28.6523 7.36602 26.7047 7.20078 23.9625 7.09883C22.6582 7.04961 21.2625 7.01797 19.8668 7.00039C19.3781 6.99336 18.9246 6.98984 18.5168 6.98633H17.4832C17.0754 6.98984 16.6219 6.99336 16.1332 7.00039C14.7375 7.01797 13.3418 7.04961 12.0375 7.09883C9.29531 7.2043 7.34414 7.36953 6.35273 7.6332C5.52375 7.85694 4.76813 8.29462 4.1616 8.90238C3.55507 9.51015 3.11892 10.2667 2.89688 11.0961C2.68242 11.8906 2.53125 12.9488 2.42578 14.218C2.34844 15.1391 2.29922 16.1164 2.27109 17.0973C2.26055 17.4383 2.25703 17.7582 2.25352 18.043C2.25352 18.1449 2.25 18.2328 2.25 18.3102V18.507C2.25 18.5844 2.25 18.6723 2.25352 18.7742C2.25703 19.059 2.26406 19.3789 2.27109 19.7199C2.29922 20.7008 2.34844 21.6781 2.42578 22.5992C2.53125 23.8684 2.68594 24.9266 2.89688 25.7211C3.34688 27.4051 4.66875 28.734 6.35273 29.184C7.34414 29.4512 9.29531 29.6164 12.0375 29.7184C13.3418 29.7676 14.7375 29.7992 16.1332 29.8168C16.6219 29.8238 17.0754 29.8273 17.4832 29.8309H18.5168C18.9246 29.8273 19.3781 29.8238 19.8668 29.8168C21.2625 29.7992 22.6582 29.7676 23.9625 29.7184C26.7047 29.6129 28.6559 29.4477 29.6473 29.184C31.3312 28.734 32.6531 27.4086 33.1031 25.7211C33.3176 24.9266 33.4688 23.8684 33.5742 22.5992C33.6516 21.6781 33.7008 20.7008 33.7289 19.7199C33.7395 19.3789 33.743 19.059 33.7465 18.7742C33.7465 18.6723 33.75 18.5844 33.75 18.507V18.3102ZM31.2188 18.493C31.2188 18.5668 31.2188 18.6477 31.2152 18.7426C31.2117 19.0168 31.2047 19.3191 31.1977 19.6461C31.173 20.5813 31.1238 21.5164 31.05 22.3848C30.9551 23.5168 30.8215 24.4449 30.6562 25.0672C30.4383 25.8793 29.7984 26.5227 28.9898 26.7371C28.2516 26.934 26.3918 27.0922 23.8641 27.1871C22.5844 27.2363 21.2062 27.268 19.8316 27.2855C19.35 27.2926 18.9035 27.2961 18.5027 27.2961H17.4973L16.1684 27.2855C14.7937 27.268 13.4191 27.2363 12.1359 27.1871C9.6082 27.0887 7.74492 26.934 7.01016 26.7371C6.20156 26.5191 5.56172 25.8793 5.34375 25.0672C5.17852 24.4449 5.04492 23.5168 4.95 22.3848C4.87617 21.5164 4.83047 20.5813 4.80234 19.6461C4.7918 19.3191 4.78828 19.0133 4.78477 18.7426C4.78477 18.6477 4.78125 18.5633 4.78125 18.493V18.3242C4.78125 18.2504 4.78125 18.1695 4.78477 18.0746C4.78828 17.8004 4.79531 17.498 4.80234 17.1711C4.82695 16.2359 4.87617 15.3008 4.95 14.4324C5.04492 13.3004 5.17852 12.3723 5.34375 11.75C5.56172 10.9379 6.20156 10.2945 7.01016 10.0801C7.74844 9.8832 9.6082 9.725 12.1359 9.63008C13.4156 9.58086 14.7937 9.54922 16.1684 9.53164C16.65 9.52461 17.0965 9.52109 17.4973 9.52109H18.5027L19.8316 9.53164C21.2062 9.54922 22.5809 9.58086 23.8641 9.63008C26.3918 9.72851 28.2551 9.8832 28.9898 10.0801C29.7984 10.298 30.4383 10.9379 30.6562 11.75C30.8215 12.3723 30.9551 13.3004 31.05 14.4324C31.1238 15.3008 31.1695 16.2359 31.1977 17.1711C31.2082 17.498 31.2117 17.8039 31.2152 18.0746C31.2152 18.1695 31.2188 18.2539 31.2188 18.3242V18.493ZM14.8711 23.1195L23.0273 18.3734L14.8711 13.6977V23.1195Z" fill="#FFF9F4"/>
</svg>
